Coordinates
version=1
nRows=15
nColumns=42
inDegrees=yes

Units are S.I. units (second, meters, Newtons, ...)
If the header above contains a line with 'inDegrees', this indicates whether rotational values are in degrees (yes) or radians (no).

endheader
time	pelvis_tilt	pelvis_list	pelvis_rotation	pelvis_tx	pelvis_ty	pelvis_tz	hip_flexion_r	hip_adduction_r	hip_rotation_r	knee_angle_r	knee_adduction_r	knee_angle_r_beta	ankle_angle_r	subtalar_angle_r	mtp_angle_r	hip_flexion_l	hip_adduction_l	hip_rotation_l	knee_angle_l	knee_adduction_l	knee_angle_l_beta	ankle_angle_l	subtalar_angle_l	mtp_angle_l	lumbar_extension	lumbar_bending	lumbar_rotation	arm_flex_r	arm_add_r	arm_rot_r	elbow_flex_r	pro_sup_r	wrist_flex_r	wrist_dev_r	arm_flex_l	arm_add_l	arm_rot_l	elbow_flex_l	pro_sup_l	wrist_flex_l	wrist_dev_l
      0.00000000	     -4.00796989	     -3.54635799	      0.64542599	     -1.38502933	      0.86596781	     -0.37910375	      1.84378695	      4.92611134	     -0.73179165	      4.40422649	      6.60763784	      0.07686825	      7.59260927	      0.12763162	     -9.72438806	     23.90613704	     -7.03585470	      5.49851220	     61.32590764	      9.33009286	      1.07033901	      6.63612387	    -16.68572678	     -9.72438806	     -5.37949023	      0.43355527	      5.58729450	     -3.53194523	    -17.90142711	      6.09365958	     37.96945220	     90.00000001	      0.00000000	      0.00000000	      1.20207442	    -11.21125372	     -7.52652858	     40.15555020	     90.00000001	      0.00000000	      0.00000000
      0.01000000	     -4.03480003	     -3.47520516	      0.70859883	     -1.37486530	      0.86517056	     -0.37837198	      1.04994415	      5.01494322	     -0.64454534	      4.27082159	      6.46545113	      0.07453990	      8.27164483	      0.23138126	     -9.67329558	     25.35771208	     -6.91366829	      5.45093677	     59.45222284	      9.43486798	      1.03763704	      7.23310132	    -16.76705902	     -9.67329558	     -5.40517318	      0.23535046	      5.69725983	     -2.68916410	    -17.80896096	      5.92535514	     38.57238293	     90.00000001	      0.00000000	      0.00000000	      0.88764215	    -11.33296769	     -7.70982143	     39.80914939	     90.00000001	      0.00000000	      0.00000000
      0.02000000	     -4.09726393	     -3.62708740	      0.71958424	     -1.36463774	      0.86421366	     -0.37752803	      0.42178468	      5.33073449	     -0.86855800	      4.42855436	      6.38300226	      0.07729285	      8.64621458	      0.28976847	     -9.64633508	     26.78798566	     -7.09210049	      5.07403900	     57.49038778	      9.26881069	      1.00339656	      7.48474812	    -16.42575863	     -9.64633508	     -5.38464641	      0.29278996	      5.81847640	     -1.84701605	    -17.75668378	      5.86733509	     39.19739902	     90.00000001	      0.00000000	      0.00000000	      0.46464361	    -11.45304941	     -7.77861298	     39.58537322	     90.00000001	      0.00000000	      0.00000000
      0.03000000	     -3.95827557	     -3.34595984	      0.66992291	     -1.35429238	      0.86356456	     -0.37693398	     -0.67940558	      5.17161276	     -0.39946848	      4.04462382	      6.23955316	      0.07059200	      9.48182270	      0.45620776	     -9.59747640	     27.66220992	     -6.81380374	      4.83164207	     55.01892692	      9.46022215	      0.96026143	      8.29623946	    -16.77097344	     -9.59747640	     -5.61322885	     -0.12056223	      6.01153842	     -0.99931703	    -17.66296472	      5.84367547	     39.81102990	     90.00000001	      0.00000000	      0.00000000	      0.30914703	    -11.50216773	     -8.24567904	     39.05660573	     90.00000001	      0.00000000	      0.00000000
      0.04000000	     -4.03567947	     -3.61382658	      0.69126661	     -1.34402024	      0.86239243	     -0.37627405	     -1.28566588	      5.54923794	     -0.68903892	      4.22022176	      6.27184107	      0.07365676	      9.77759406	      0.47662073	     -9.57227048	     28.92031652	     -7.15302704	      4.16709905	     52.73403493	      9.14123175	      0.92038254	      8.40331028	    -16.32446663	     -9.57227048	     -5.58571054	      0.09908893	      6.08835680	     -0.16716854	    -17.64921798	      5.79874843	     40.42945747	     90.00000001	      0.00000000	      0.00000000	     -0.11854552	    -11.58910995	     -8.31202437	     38.85785369	     90.00000001	      0.00000000	      0.00000000
      0.05000000	     -3.74537334	     -3.19354587	      0.44071190	     -1.33341777	      0.86192504	     -0.37568715	     -2.55257107	      5.22279511	     -0.03444487	      3.88483245	      6.10432498	      0.06780312	     10.46316981	      0.59931229	     -9.52187191	     29.17790538	     -6.86140771	      3.32330462	     49.57498507	      9.13195974	      0.86524672	      9.05560918	    -16.41089977	     -9.52187191	     -5.98616903	     -0.46454576	      6.44000023	      0.63432562	    -17.59064914	      5.91841165	     41.01859457	     90.00000001	      0.00000000	      0.00000000	     -0.20368590	    -11.59420134	     -8.91689386	     38.22936718	     90.00000001	      0.00000000	      0.00000000
      0.06000000	     -3.84624832	     -3.55761013	      0.47387574	     -1.32299148	      0.86054066	     -0.37522636	     -3.14937353	      5.65959145	     -0.36129137	      4.05597130	      6.20591077	      0.07079005	     10.74215337	      0.58781113	     -9.49654466	     30.24012496	     -7.31509315	      2.34732643	     46.96833664	      8.67879164	      0.81975212	      9.06387268	    -15.85275299	     -9.49654466	     -5.91247479	     -0.10842873	      6.45863974	      1.41543323	    -17.61102663	      5.88180273	     41.62797419	     90.00000001	      0.00000000	      0.00000000	     -0.65812855	    -11.66069004	     -8.99141481	     38.02917301	     90.00000001	      0.00000000	      0.00000000
      0.07000000	     -2.94372856	     -2.70121555	      0.02981752	     -1.31194298	      0.86091984	     -0.37502507	     -5.19012795	      4.61694407	      0.55186257	      3.55216587	      6.40208283	      0.06199699	     11.12640573	      0.31423983	     -9.39881005	     29.23262467	     -6.61257510	      0.56522243	     43.01648899	      8.28358114	      0.75077937	      9.32571616	    -15.41010103	     -9.39881005	     -7.01722390	     -1.11933355	      6.94269321	      2.32195570	    -17.57713102	      6.10607113	     42.17585598	     90.00000001	      0.00000000	      0.00000000	     -0.59434726	    -11.59688257	     -9.79002963	     37.36869873	     90.00000001	      0.00000000	      0.00000000
      0.08000000	     -2.80552863	     -2.63482586	     -0.23082521	     -1.30129813	      0.85997726	     -0.37451707	     -6.15907832	      4.55329016	      0.93006056	      3.49772738	      6.43764578	      0.06104686	     11.42212921	      0.12318159	     -9.30413342	     29.37486308	     -6.76554581	     -0.65057444	     39.53314938	      8.12493686	      0.68998362	      9.49119398	    -14.49385282	     -9.30413342	     -7.23631082	     -1.26434916	      7.25739100	      3.06251659	    -17.57879962	      6.23809057	     42.77632798	     90.00000001	      0.00000000	      0.00000000	     -0.80848602	    -11.61198019	    -10.10730174	     36.95998546	     90.00000001	      0.00000000	      0.00000000
      0.09000000	     -2.96700925	     -2.81418988	     -0.48427074	     -1.29082594	      0.85855212	     -0.37386680	     -6.66049253	      4.82553707	      1.08984091	      3.72901933	      6.34076533	      0.06508367	     11.77597628	      0.22600169	     -9.26271839	     29.81398384	     -7.23142236	     -1.57065754	     36.08335839	      8.21762758	      0.62977341	      9.46833034	    -13.42440502	     -9.26271839	     -7.13293012	     -1.14248336	      7.53201601	      3.74626010	    -17.57468304	      6.38930685	     43.41820863	     90.00000001	      0.00000000	      0.00000000	     -1.08444756	    -11.62198674	    -10.35882336	     36.57822584	     90.00000001	      0.00000000	      0.00000000
      0.10000000	     -3.14347335	     -3.14000471	     -0.61003982	     -1.28006769	      0.85695467	     -0.37352248	     -7.15796993	      5.26010482	      1.01056821	      4.00143297	      6.21127449	      0.06983818	     12.09603787	      0.32140973	     -9.23327611	     30.25592666	     -7.69981106	     -2.65822958	     32.81634387	      8.02838792	      0.57275325	      9.34258605	    -12.42925813	     -9.23327611	     -6.94993218	     -0.81338666	      7.75852806	      4.32304234	    -17.65502525	      6.49012410	     44.00080418	     90.00000001	      0.00000000	      0.00000000	     -1.41744771	    -11.59684002	    -10.57213296	     36.28765395	     90.00000001	      0.00000000	      0.00000000
      0.11000000	     -2.35906331	     -2.49633511	     -1.19406344	     -1.26878449	      0.85694435	     -0.37328595	     -8.89013927	      4.26492584	      1.67692910	      3.86577714	      6.59684326	      0.06747054	     12.43481561	      0.32612206	     -9.14847923	     28.72346750	     -7.33464050	     -3.84302683	     28.37901159	      8.29336615	      0.49530719	      9.32203135	    -11.18722712	     -9.14847923	     -7.88797975	     -1.59711916	      8.24416789	      5.11892669	    -17.63386091	      6.81916026	     44.60320212	     90.00000001	      0.00000000	      0.00000000	     -1.37403113	    -11.52880942	    -11.36933019	     35.52670683	     90.00000001	      0.00000000	      0.00000000
      0.12000000	     -2.22440522	     -2.48116570	     -1.58891756	     -1.25769041	      0.85586823	     -0.37290038	     -9.75876114	      4.15507221	      2.05759813	      4.06510302	      6.65327665	      0.07094943	     12.67046554	      0.29544357	     -9.05481117	     28.23507124	     -7.55547427	     -4.71219980	     24.73376866	      8.48237019	      0.43168570	      8.96896793	    -10.06020377	     -9.05481117	     -8.06326647	     -1.67762934	      8.63667221	      5.68628711	    -17.67056238	      7.04671493	     45.22824596	     90.00000001	      0.00000000	      0.00000000	     -1.57664023	    -11.50325781	    -11.73225345	     35.09985935	     90.00000001	      0.00000000	      0.00000000
      0.13000000	     -2.15325823	     -2.52854244	     -2.01177931	     -1.24651304	      0.85470378	     -0.37253083	    -10.50059936	      4.10356617	      2.41962949	      4.39792021	      6.68233075	      0.07675819	     12.91397256	      0.31504666	     -8.97993655	     27.74918662	     -7.84448146	     -5.39748958	     21.35286220	      8.74186671	      0.37267775	      8.62117827	     -9.02143557	     -8.97993655	     -8.15637469	     -1.68205745	      9.05173273	      6.19686712	    -17.72585515	      7.30151216	     45.85013604	     90.00000001	      0.00000000	      0.00000000	     -1.75006330	    -11.45384416	    -12.14003134	     34.60069182	     90.00000001	      0.00000000	      0.00000000
      0.14000000	     -2.06903640	     -2.51574142	     -2.43126671	     -1.23516956	      0.85359794	     -0.37227968	    -11.23019802	      3.94819477	      2.82844794	      4.79294583	      6.73839153	      0.08365269	     13.06641383	      0.31376478	     -8.88553334	     27.18290213	     -8.02536146	     -6.00976215	     18.28944023	      8.96332242	      0.31921095	      8.06989327	     -8.16989340	     -8.88553334	     -8.24732824	     -1.75049143	      9.43727406	      6.63895322	    -17.77124939	      7.54856129	     46.47550391	     90.00000001	      0.00000000	      0.00000000	     -1.95088081	    -11.41442218	    -12.52634987	     34.17757751	     90.00000001	      0.00000000	      0.00000000
